<svg xmlns="http://www.w3.org/2000/svg" enable-background="new 0 0 32 32" viewBox="0 0 32 32">
  <path fill="#ffe6e2"
    d="m26 32h-20c-3.314 0-6-2.686-6-6v-20c0-3.314 2.686-6 6-6h20c3.314 0 6 2.686 6 6v20c0 3.314-2.686 6-6 6z" />
  <g fill="#fc573b">
    <path
      d="m12.667 22.667c-.369 0-.667-.298-.667-.667v-12c0-.368.299-.667.667-.667s.666.299.666.667v12c0 .369-.298.667-.666.667z" />
    <path
      d="m17.167 16.333h-4.333c-.368 0-.667-.298-.667-.667 0-.368.299-.667.667-.667h4.333c1.195 0 2.167-.972 2.167-2.167s-.972-2.167-2.167-2.167h-5.833c-.368 0-.667-.298-.667-.667 0-.368.299-.667.667-.667h5.833c1.93 0 3.5 1.57 3.5 3.5s-1.57 3.502-3.5 3.502z" />
    <path
      d="m17.5 22.667h-6.167c-.368 0-.667-.298-.667-.667 0-.368.299-.667.667-.667h6.167c1.379 0 2.5-1.122 2.5-2.5s-1.121-2.5-2.5-2.5h-4.667c-.368 0-.667-.298-.667-.667 0-.368.299-.667.667-.667h4.667c2.114 0 3.833 1.719 3.833 3.833s-1.719 3.835-3.833 3.835z" />
  </g>
</svg>
