<svg xmlns="http://www.w3.org/2000/svg" enable-background="new 0 0 32 32" viewBox="0 0 32 32"><path fill="#f5e6fe" d="m26 32h-20c-3.314 0-6-2.686-6-6v-20c0-3.314 2.686-6 6-6h20c3.314 0 6 2.686 6 6v20c0 3.314-2.686 6-6 6z"/><g fill="#d9a4fc"><circle cx="9.333" cy="10.667" r="1.333"/><circle cx="9.333" cy="16" r="1.333"/><circle cx="9.333" cy="21.333" r="1.333"/></g><path fill="#be63f9" d="M23.333 11.333h-10c-.368 0-.667-.298-.667-.667s.298-.666.667-.666h10c.368 0 .667.298.667.667s-.299.666-.667.666zM23.333 16.667h-10c-.368 0-.667-.298-.667-.667 0-.368.298-.667.667-.667h10c.368 0 .667.298.667.667 0 .368-.299.667-.667.667zM23.333 22h-10c-.368 0-.667-.298-.667-.667 0-.368.298-.667.667-.667h10c.368 0 .667.298.667.667s-.299.667-.667.667z"/></svg>