<svg xmlns="http://www.w3.org/2000/svg" enable-background="new 0 0 32 32" viewBox="0 0 32 32">
  <path fill="#f5e6fe"
    d="m26 32h-20c-3.314 0-6-2.686-6-6v-20c0-3.314 2.686-6 6-6h20c3.314 0 6 2.686 6 6v20c0 3.314-2.686 6-6 6z" />
  <path fill="#d9a4fc"
    d="m14.501 22.666c-.053 0-.108-.007-.162-.02-.357-.089-.575-.451-.485-.808l3-12c.089-.358.451-.577.808-.485.357.089.575.451.485.808l-3 12c-.076.303-.348.505-.646.505z" />
  <path fill="#be63f9"
    d="M12.667 20.666c-.171 0-.341-.065-.471-.195l-4-4c-.26-.26-.26-.682 0-.943l4-4c.26-.26.682-.26.943 0s.26.682 0 .943l-3.529 3.529 3.529 3.529c.26.26.26.682 0 .943-.131.129-.302.194-.472.194zM19.333 20.666c-.171 0-.341-.065-.471-.195-.26-.26-.26-.682 0-.943l3.529-3.529-3.529-3.529c-.26-.26-.26-.682 0-.943s.682-.26.943 0l4 4c.26.26.26.682 0 .943l-4 4c-.131.131-.301.196-.472.196z" />
</svg>
