<svg xmlns="http://www.w3.org/2000/svg" enable-background="new 0 0 32 32" viewBox="0 0 32 32"><path fill="#ffe6e2" d="m26 32h-20c-3.314 0-6-2.686-6-6v-20c0-3.314 2.686-6 6-6h20c3.314 0 6 2.686 6 6v20c0 3.314-2.686 6-6 6z"/><g fill="#fc573b"><path d="m13.959 22.666c-.368 0-.667-.298-.667-.667v-11.999c0-.368.298-.667.667-.667.368 0 .667.298.667.667v12c-.001.368-.299.666-.667.666z"/><path d="M19.292 12c-.368 0-.667-.298-.667-.667v-.667h-9.5v.667c0 .368-.298.667-.666.667s-.667-.298-.667-.667v-1.333c0-.368.298-.667.667-.667h10.833c.368 0 .667.298.667.667v1.333c0 .368-.298.667-.667.667zM15.292 22.666h-2.667c-.368 0-.667-.298-.667-.667s.298-.667.667-.667h2.667c.368 0 .667.298.667.667s-.299.667-.667.667z"/></g><path fill="#fd907e" d="m17.959 17.833c-.368 0-.667-.298-.667-.667v-1.166c0-.368.298-.667.667-.667h5.333c.368 0 .667.298.667.667v1c0 .368-.298.667-.667.667-.368 0-.667-.298-.667-.667v-.333h-4v.5c0 .368-.298.666-.666.666z"/><path fill="#fd907e" d="m20.625 22.666c-.368 0-.667-.298-.667-.667v-6c0-.368.298-.667.667-.667s.667.298.667.667v6c0 .369-.298.667-.667.667z"/><path fill="#fd907e" d="m21.625 22.666h-2c-.368 0-.667-.298-.667-.667s.298-.667.667-.667h2c.368 0 .667.298.667.667s-.298.667-.667.667z"/></svg>