<svg xmlns="http://www.w3.org/2000/svg" enable-background="new 0 0 32 32" viewBox="0 0 32 32"><path fill="#FFE6E2" d="M26,32H6c-3.314,0-6-2.686-6-6V6c0-3.314,2.686-6,6-6h20c3.314,0,6,2.686,6,6v20C32,29.314,29.314,32,26,32z"/><circle cx="11.333" cy="13.333" r="1.333" fill="#FD907E"/><path fill="#FC573B" d="M22,10H10c-1.103,0-2,0.897-2,2v8c0,0.038,0.009,0.073,0.011,0.11c-0.009,0.08-0.005,0.161,0.024,0.237C8.2,21.284,9.016,22,10,22h12c1.103,0,2-0.897,2-2v-8C24,10.897,23.103,10,22,10z M10,11.333h12c0.368,0,0.667,0.299,0.667,0.667v5.293l-3.507-3.507c-0.456-0.456-1.198-0.456-1.654,0l-3.173,3.173l-0.84-0.84c-0.456-0.456-1.198-0.456-1.654,0l-2.507,2.507V12C9.333,11.632,9.632,11.333,10,11.333z"/></svg>