<svg xmlns="http://www.w3.org/2000/svg" enable-background="new 0 0 32 32" viewBox="0 0 32 32"><path fill="#E3F8FA" d="M26,32H6c-3.314,0-6-2.686-6-6V6c0-3.314,2.686-6,6-6h20c3.314,0,6,2.686,6,6v20C32,29.314,29.314,32,26,32z"/><circle cx="11" cy="12.333" r="1" fill="#8CE1EB"/><path fill="#26C6DA" d="M22.333,13.667v4.035c0,1.451-1.18,2.632-2.632,2.632H13V21c0,0.919,0.748,1.667,1.667,1.667h7.667C23.252,22.667,24,21.919,24,21v-5.667C24,14.414,23.252,13.667,22.333,13.667z"/><path fill="#26C6DA" d="M19.702,9.333H9.631C8.732,9.333,8,10.065,8,10.965v6.737c0,0.115,0.013,0.228,0.036,0.337c-0.039,0.163-0.003,0.341,0.124,0.468c0.028,0.028,0.063,0.044,0.096,0.064c0.289,0.457,0.796,0.763,1.376,0.763h10.07c0.9,0,1.632-0.732,1.632-1.632v-6.737C21.333,10.065,20.602,9.333,19.702,9.333z M9.631,10.667h10.07c0.164,0,0.298,0.134,0.298,0.298v4.101l-2.106-2.457c-0.223-0.262-0.532-0.39-0.894-0.41c-0.345,0.002-0.67,0.155-0.891,0.421l-2.476,2.972l-0.806-0.806c-0.456-0.456-1.198-0.456-1.654,0l-1.84,1.84v-5.661C9.333,10.8,9.467,10.667,9.631,10.667z"/></svg>