<svg xmlns="http://www.w3.org/2000/svg" enable-background="new 0 0 32 32" viewBox="0 0 32 32">
  <path fill="#ffe6e2"
    d="m26 32h-20c-3.314 0-6-2.686-6-6v-20c0-3.314 2.686-6 6-6h20c3.314 0 6 2.686 6 6v20c0 3.314-2.686 6-6 6z" />
  <g fill="#fc573b">
    <path
      d="M15.334 22.667h-2c-.368 0-.667-.298-.667-.667 0-.368.299-.667.667-.667h2c.368 0 .666.299.666.667 0 .369-.298.667-.666.667zM18.667 10.667h-2c-.368 0-.667-.298-.667-.667 0-.368.299-.667.667-.667h2c.368 0 .667.298.667.667s-.299.667-.667.667z" />
    <path
      d="m14.334 22.667c-.059 0-.119-.008-.179-.024-.355-.099-.563-.466-.464-.821l3.333-12c.099-.354.467-.561.821-.464.355.099.563.466.464.821l-3.333 12c-.082.294-.35.488-.642.488z" />
  </g>
</svg>
