<svg xmlns="http://www.w3.org/2000/svg" enable-background="new 0 0 32 32" viewBox="0 0 32 32"><path fill="#fff9dd" d="m26 32h-20c-3.314 0-6-2.686-6-6v-20c0-3.314 2.686-6 6-6h20c3.314 0 6 2.686 6 6v20c0 3.314-2.686 6-6 6z"/><path fill="#ffd200" d="M19.745 18.441c-.171 0-.341-.065-.471-.195-.26-.26-.26-.682 0-.943l1.777-1.777c.614-.607.95-1.419.95-2.288-.001-1.786-1.454-3.238-3.239-3.238-.868 0-1.68.337-2.286.948l-1.779 1.779c-.26.26-.682.26-.943 0s-.26-.682 0-.943l1.777-1.777c.856-.864 2.005-1.341 3.231-1.341 2.521 0 4.572 2.051 4.572 4.572 0 1.227-.477 2.375-1.343 3.233l-1.774 1.774c-.131.131-.302.196-.472.196zM13.238 23.333c-2.521 0-4.571-2.051-4.571-4.572 0-1.227.477-2.374 1.342-3.232l1.775-1.775c.26-.26.682-.26.943 0s.26.682 0 .943l-1.777 1.777c-.613.608-.95 1.42-.95 2.288 0 1.785 1.453 3.238 3.238 3.238.868 0 1.68-.337 2.286-.948l1.779-1.779c.26-.26.682-.26.943 0s.26.682 0 .943l-1.777 1.777c-.856.864-2.004 1.34-3.231 1.34z"/><path fill="#ffe777" d="m13.334 19.333c-.171 0-.341-.065-.471-.195-.26-.26-.26-.682 0-.943l5.333-5.333c.26-.26.682-.26.943 0s.26.682 0 .943l-5.333 5.333c-.131.13-.302.195-.472.195z"/></svg>