<svg xmlns="http://www.w3.org/2000/svg" enable-background="new 0 0 32 32" viewBox="0 0 32 32"><path fill="#e3f8fa" d="m26 32h-20c-3.314 0-6-2.686-6-6v-20c0-3.314 2.686-6 6-6h20c3.314 0 6 2.686 6 6v20c0 3.314-2.686 6-6 6z"/><path fill="#26c6da" d="M20.173 18.014c-.171 0-.341-.065-.471-.195-.26-.26-.26-.682 0-.943l1.347-1.347c.614-.609.951-1.421.951-2.289 0-1.786-1.453-3.24-3.24-3.24-.868 0-1.68.337-2.287.949l-1.349 1.349c-.26.26-.682.26-.943 0s-.26-.682 0-.943l1.347-1.347c.857-.865 2.005-1.342 3.231-1.342 2.522 0 4.573 2.051 4.573 4.574 0 1.227-.477 2.375-1.344 3.234l-1.344 1.344c-.129.13-.3.196-.471.196zM13.24 23.333c-2.522 0-4.573-2.051-4.573-4.574 0-1.226.478-2.374 1.344-3.233l1.345-1.344c.26-.26.682-.26.943 0 .26.26.26.682 0 .943l-1.347 1.346c-.615.609-.952 1.421-.952 2.289 0 1.786 1.453 3.24 3.24 3.24.868 0 1.68-.337 2.286-.949l1.349-1.349c.26-.26.682-.26.943 0s.26.682 0 .943l-1.347 1.347c-.856.864-2.004 1.341-3.231 1.341z"/><path fill="#8ce1eb" d="M17.413 15.253c-.171 0-.341-.065-.471-.195-.26-.26-.26-.682 0-.943l1.253-1.253c.26-.26.682-.26.943 0s.26.682 0 .943l-1.253 1.253c-.13.13-.301.195-.472.195zM13.333 19.333c-.171 0-.341-.065-.471-.195-.26-.26-.26-.682 0-.943l1.253-1.253c.26-.26.682-.26.943 0s.26.682 0 .943l-1.253 1.253c-.131.13-.301.195-.472.195zM22.667 23.333c-.171 0-.341-.065-.471-.195l-13.334-13.333c-.26-.26-.26-.682 0-.943s.682-.26.943 0l13.333 13.333c.26.26.26.682 0 .943-.13.13-.301.195-.471.195z"/></svg>