<svg xmlns="http://www.w3.org/2000/svg" enable-background="new 0 0 32 32" viewBox="0 0 32 32"><path fill="#e3f8fa" d="m26 32h-20c-3.314 0-6-2.686-6-6v-20c0-3.314 2.686-6 6-6h20c3.314 0 6 2.686 6 6v20c0 3.314-2.686 6-6 6z"/><g fill="#8ce1eb"><path d="M11 18h-1.666c-.276 0-.5-.224-.5-.5v-.833c0-.643.523-1.167 1.167-1.167h.333c.092 0 .167-.075.167-.167v-.167c0-.092-.075-.167-.167-.167h-1c-.276 0-.5-.224-.5-.5s.224-.5.5-.5h1c.643 0 1.167.523 1.167 1.167v.167c0 .643-.523 1.167-1.167 1.167h-.334c-.092 0-.167.075-.167.167v.333h1.167c.276 0 .5.224.5.5s-.224.5-.5.5zM10.334 21.833h-.667c-.276 0-.5-.224-.5-.5s.224-.5.5-.5h.667c.092 0 .167-.075.167-.167v-.166c0-.092-.075-.167-.167-.167h-1c-.276 0-.5-.224-.5-.5s.224-.5.5-.5h1c.643 0 1.167.523 1.167 1.167v.167c-.001.643-.524 1.166-1.167 1.166z"/><path d="M10.334 23.333h-1c-.276 0-.5-.224-.5-.5s.224-.5.5-.5h1c.092 0 .167-.075.167-.167v-.166c0-.092-.075-.167-.167-.167h-.667c-.276 0-.5-.224-.5-.5s.224-.5.5-.5h.667c.643 0 1.167.523 1.167 1.167v.167c-.001.643-.524 1.166-1.167 1.166zM10.334 12.667c-.276 0-.5-.224-.5-.5v-2.5h-.5c-.276 0-.5-.224-.5-.5s.224-.5.5-.5h1c.276 0 .5.224.5.5v3c0 .276-.224.5-.5.5z"/></g><path fill="#26c6da" d="M23.5 11.333h-10c-.368 0-.667-.298-.667-.667s.299-.666.667-.666h10c.368 0 .667.298.667.667s-.298.666-.667.666zM23.5 16.667h-10c-.368 0-.667-.298-.667-.667 0-.368.298-.667.667-.667h10c.368 0 .667.298.667.667 0 .368-.298.667-.667.667zM23.5 22h-10c-.368 0-.667-.298-.667-.667 0-.368.298-.667.667-.667h10c.368 0 .667.298.667.667s-.298.667-.667.667z"/></svg>