<svg xmlns="http://www.w3.org/2000/svg" enable-background="new 0 0 32 32" viewBox="0 0 32 32"><path fill="#fff9dd" d="m26 32h-20c-3.314 0-6-2.686-6-6v-20c0-3.314 2.686-6 6-6h20c3.314 0 6 2.686 6 6v20c0 3.314-2.686 6-6 6z"/><g fill="#ffd200"><path d="M17.833 22.666c-.368 0-.667-.298-.667-.667v-11.999c0-.368.299-.667.667-.667s.667.298.667.667v12c0 .368-.298.666-.667.666zM15.833 22.666c-.368 0-.667-.298-.667-.667v-11.999c0-.368.299-.667.667-.667s.667.298.667.667v12c0 .368-.298.666-.667.666z"/><path d="M15.833 16h-2c-1.838 0-3.333-1.495-3.333-3.333s1.495-3.333 3.333-3.333h5.5c.369-.001.667.297.667.666s-.299.667-.667.667h-5.5c-1.103 0-2 .897-2 2s.897 2 2 2h2c.368 0 .667.298.667.667 0 .367-.298.666-.667.666zM19.833 22.666h-5.333c-.368 0-.667-.298-.667-.667s.299-.667.667-.667h5.333c.368 0 .667.298.667.667s-.298.667-.667.667z"/></g></svg>
