<svg xmlns="http://www.w3.org/2000/svg" enable-background="new 0 0 32 32" viewBox="0 0 32 32"><path fill="#e3f8fa" d="m26 32h-20c-3.314 0-6-2.686-6-6v-20c0-3.314 2.686-6 6-6h20c3.314 0 6 2.686 6 6v20c0 3.314-2.686 6-6 6z"/><path fill="#26c6da" d="m21 10.667h-2c-.919 0-1.667.748-1.667 1.667v2c0 .918.748 1.666 1.667 1.666h2c.114 0 .226-.012.333-.034v1.367c0 1.47-1.196 2.667-2.667 2.667h-.666c-.368 0-.667.299-.667.667s.298.667.667.667h.667c2.206 0 4-1.794 4-4v-3-.167-1.833c-.001-.919-.748-1.667-1.667-1.667z"/><path fill="#8ce1eb" d="m13 10.667h-2c-.919 0-1.667.748-1.667 1.667v2c0 .918.747 1.666 1.667 1.666h2c.114 0 .226-.012.333-.034v1.367c0 1.47-1.196 2.667-2.667 2.667h-.666c-.368 0-.667.299-.667.667s.298.667.667.667h.667c2.206 0 4-1.794 4-4v-3-.167-1.833c-.001-.919-.748-1.667-1.667-1.667z"/></svg>