<svg xmlns="http://www.w3.org/2000/svg" enable-background="new 0 0 32 32" viewBox="0 0 32 32">
  <path fill="#ffe6e2"
    d="m26 32h-20c-3.314 0-6-2.686-6-6v-20c0-3.314 2.686-6 6-6h20c3.314 0 6 2.686 6 6v20c0 3.314-2.686 6-6 6z" />
  <g fill="#fc573b">
    <path
      d="m16 20.667c-2.573 0-4.667-2.094-4.667-4.667v-6c0-.368.299-.667.667-.667s.667.299.667.667v6c0 1.838 1.495 3.333 3.333 3.333s3.333-1.495 3.333-3.333v-6c0-.368.299-.667.667-.667s.667.299.667.667v6c0 2.573-2.094 4.667-4.667 4.667z" />
    <path
      d="M13.333 10.667h-2.667c-.368 0-.666-.298-.666-.667 0-.368.299-.667.667-.667h2.667c.367 0 .666.299.666.667 0 .369-.299.667-.667.667zM21.333 10.667h-2.667c-.368 0-.666-.298-.666-.667 0-.368.299-.667.667-.667h2.667c.367 0 .666.299.666.667 0 .369-.299.667-.667.667z" />
  </g>
  <path fill="#fd907e"
    d="m20.667 22.667h-9.333c-.368 0-.667-.298-.667-.667 0-.368.299-.667.667-.667h9.333c.368 0 .667.298.667.667-.001.369-.299.667-.667.667z" />
</svg>
