<svg xmlns="http://www.w3.org/2000/svg" enable-background="new 0 0 32 32" viewBox="0 0 32 32"><path fill="#FFE6E2" d="M26,32H6c-3.314,0-6-2.686-6-6V6c0-3.314,2.686-6,6-6h20c3.314,0,6,2.686,6,6v20C32,29.314,29.314,32,26,32z"/><path fill="#FC573B" d="M22,9.333H10c-1.1,0-2,0.9-2,2v9.333c0,1.1,0.9,2,2,2h12c1.1,0,2-0.9,2-2v-9.333C24,10.233,23.1,9.333,22,9.333z M10.667,13.5C10.3,13.5,10,13.2,10,12.833v-1c0-0.367,0.3-0.667,0.667-0.667c0.367,0,0.667,0.3,0.667,0.667v1C11.333,13.2,11.033,13.5,10.667,13.5z M11.333,15.5v1c0,0.367-0.3,0.667-0.667,0.667C10.3,17.167,10,16.867,10,16.5v-1c0-0.367,0.3-0.667,0.667-0.667C11.033,14.833,11.333,15.133,11.333,15.5z M10,19.167c0-0.367,0.3-0.667,0.667-0.667c0.367,0,0.667,0.3,0.667,0.667v1c0,0.367-0.3,0.667-0.667,0.667c-0.367,0-0.667-0.3-0.667-0.667V19.167z M21.333,13.5c-0.367,0-0.667-0.3-0.667-0.667v-1c0-0.367,0.3-0.667,0.667-0.667c0.367,0,0.667,0.3,0.667,0.667v1C22,13.2,21.7,13.5,21.333,13.5z M22,15.5v1c0,0.367-0.3,0.667-0.667,0.667c-0.367,0-0.667-0.3-0.667-0.667v-1c0-0.367,0.3-0.667,0.667-0.667C21.7,14.833,22,15.133,22,15.5z M20.667,19.167c0-0.367,0.3-0.667,0.667-0.667C21.7,18.5,22,18.8,22,19.167v1c0,0.367-0.3,0.667-0.667,0.667c-0.367,0-0.667-0.3-0.667-0.667V19.167z"/><rect width="6" height="3.667" x="13" y="10.667" fill="#FD907E"/><rect width="6" height="3.667" x="13" y="17.667" fill="#FD907E"/></svg>