<svg width="32" height="32" xmlns="http://www.w3.org/2000/svg">
    <path
        d="M30.319 13.167a.68.68 0 00-.68.679v1.475h-3.222a10.395 10.395 0 00-2.575-6.205l2.282-2.282 1.042 1.043a.677.677 0 00.961 0 .68.68 0 000-.96L25.082 3.87a.68.68 0 00-.961.96l1.043 1.044-2.282 2.281a10.4 10.4 0 00-6.204-2.575V2.36h1.474a.68.68 0 000-1.359h-4.307a.68.68 0 000 1.359h1.474V5.58a10.394 10.394 0 00-6.204 2.576L6.834 5.874l1.042-1.042a.679.679 0 10-.96-.96L3.87 6.915a.68.68 0 00.961.961l1.042-1.042 2.282 2.28a10.401 10.401 0 00-2.575 6.206H2.359v-1.475a.68.68 0 00-1.359 0v4.308a.68.68 0 001.359 0v-1.475H5.58a10.392 10.392 0 002.575 6.205l-2.28 2.28-1.043-1.041a.68.68 0 00-.96.96l3.045 3.046a.677.677 0 00.96 0 .679.679 0 000-.961l-1.042-1.043 2.281-2.28a10.4 10.4 0 006.205 2.574v3.221h-1.474a.68.68 0 000 1.36h4.306a.68.68 0 000-1.36H16.68v-3.22a10.397 10.397 0 006.205-2.576l2.28 2.282-1.041 1.042a.68.68 0 00.96.96l3.046-3.045a.68.68 0 00-.96-.96l-1.043 1.042-2.282-2.282a10.399 10.399 0 002.575-6.204h3.222v1.474a.68.68 0 001.359 0v-4.307a.682.682 0 00-.681-.68zm-14.32 11.918c-5.01 0-9.085-4.076-9.085-9.086 0-5.009 4.075-9.084 9.085-9.084 5.009 0 9.084 4.075 9.084 9.084 0 5.01-4.075 9.086-9.084 9.086zm0-7.085c-1.103 0-2-.898-2-2 0-1.103.897-2 2-2 1.102 0 2 .897 2 2 0 1.102-.898 2-2 2z"
        fill-rule="nonzero" />
</svg>