<?xml version="1.0" encoding="UTF-8"?>
<svg width="106px" height="30px" viewBox="0 0 106 30" version="1.1" xmlns="http://www.w3.org/2000/svg" xmlns:xlink="http://www.w3.org/1999/xlink">
    <title>Logo Type 2</title>
    <g id="Symbols" stroke="none" stroke-width="1" fill="none" fill-rule="evenodd">
        <g id="Navigation-V2-/-Light" transform="translate(-1293.000000, -25.000000)">
            <g id="Logo-Type-2" transform="translate(1293.000000, 25.000000)">
                <g id="Group-3" fill="#FF3800">
                    <path d="M13.6339105,2.51715579 C12.2917973,0.534021554 8.18978319,-0.145746723 6.3208105,0.0253655668 C4.41803143,0.199858495 4.02197669,4.58714641 5.47669121,4.59052705 C6.02981559,4.59182729 7.89592774,4.60586994 8.44723177,4.63473539 C7.31159747,5.55556916 7.38987224,5.56987186 5.95856214,6.59264486 C5.17425414,7.15331066 4.82760872,7.18555675 4.44507653,7.53246221 C3.51410085,8.3771016 5.22054287,12.1030847 7.38363106,11.187712 C8.54813081,10.694919 12.1446095,7.67574925 13.3985661,6.22415532 C14.5045548,4.94367369 13.9904378,3.04375516 13.6339105,2.51715579" id="Fill-1"></path>
                    <path d="M44.9046816,17.9260776 C45.9662019,16.1416208 43.3846947,13.2033263 42.1736462,14.2908516 C40.5889071,15.7138401 38.6354185,16.1985716 36.8103941,16.3733245 C33.1834897,16.7204901 28.5317319,16.5483376 24.8978061,16.2953098 C23.9228821,13.9033784 22.1675509,13.5257872 19.9059041,14.2578253 C18.4608114,14.7253936 16.7834949,15.9819507 19.0654255,18.8125849 C18.5713323,19.2835337 18.0421324,19.6814088 17.5771647,19.7165154 C16.0363739,19.8324973 17.9375927,24.0062849 19.3598011,23.8991447 C20.3750326,23.8226903 21.1034301,23.0024955 21.8073829,22.3547133 C22.5131561,21.7056308 23.2051467,21.0292432 23.8383662,20.3055266 C26.0672468,20.3822411 30.2030673,20.8680127 35.5866032,20.7273262 C38.5540231,20.6498316 43.375593,20.4961426 44.9046816,17.9260776" id="Fill-3"></path>
                    <path d="M14.0773722,15.1691413 L12.0981387,15.5142264 C12.1930566,15.2247918 12.1803142,14.8628035 12.0575711,14.4441245 C11.7858198,13.5162694 10.9240172,12.3047008 10.2200643,12.1335885 C9.9873204,12.0768978 9.77616055,12.1330684 9.62455194,12.2919584 C7.98572268,14.0106227 6.18280246,15.7630934 4.10683071,16.9387753 C3.65538551,17.1944035 3.5620279,17.8036985 3.85094242,18.6108908 C4.19030646,19.5600699 5.12700322,20.8543341 5.92873451,20.7162481 L7.78106406,20.3919669 C5.64112024,22.2019084 3.91205395,23.6017526 2.25398106,24.8692318 C1.50191914,25.4442003 1.04449282,25.7110106 0.742055747,25.8873239 C0.479926282,26.0402328 0.306733599,26.1411318 0.159805873,26.3192654 C-0.185539297,26.7376844 0.114817383,27.6358939 0.259924766,28.0025631 C0.625553763,28.9270375 1.31910464,29.9011814 2.04412146,29.9940189 C2.07688764,29.9981797 2.10991387,30 2.14372025,30 C2.746514,30 3.46997052,29.3613195 4.00593166,28.8880302 C4.13621625,28.7728284 4.24855745,28.6732296 4.33281335,28.6084774 C7.92097046,25.8673001 11.3921055,22.8587924 14.749079,19.9491033 L15.9408839,18.9169686 C16.4742445,18.4561616 16.2838886,17.488779 15.9278814,16.7372372 C15.5159637,15.8678932 14.7839256,15.0469182 14.0773722,15.1691413" id="Fill-5"></path>
                    <path d="M47.6100501,10.32929 C47.7330533,10.3789594 47.8420139,10.398203 47.9371918,10.398203 C48.1249472,10.398203 48.2588725,10.3230488 48.3389676,10.2588167 C51.0263148,8.56147639 52.2256611,7.51867961 54.3996713,5.62812285 C54.7221322,5.34805 55.065657,5.04925361 55.4385674,4.72705281 C55.6463466,4.5473589 55.8668682,4.19005147 55.7363236,3.50716261 C55.5402466,2.48204916 54.6459378,1.23173322 53.9305428,0.982866254 C53.6639925,0.890288784 53.4140853,0.928255949 53.2263299,1.09026652 C52.8528994,1.41298742 52.5088545,1.71204386 52.1861336,1.99263681 C50.0274663,3.86967102 48.8385219,4.90362613 46.1745792,6.58484339 C45.9628993,6.71876866 45.7210536,6.99910156 45.7725433,7.57563036 C45.8614801,8.56953791 46.8234016,10.0109899 47.6100501,10.32929" id="Fill-7"></path>
                    <path d="M55.8523835,16.2203897 C55.7613663,15.5502432 54.6876237,14.63227 53.8591073,14.3189109 C53.1871405,14.0645829 52.7994074,14.2247731 52.5924083,14.4034268 L52.1172986,14.8140443 C49.4991246,17.0767313 47.026578,19.2138146 44.0841227,21.1699037 C43.391612,21.6304506 42.9820347,21.791421 42.6827183,21.9089632 C42.3945839,22.0223446 42.1862846,22.104 41.9967088,22.3682098 C41.6677467,22.8258962 41.923635,23.7293067 42.273141,24.4223375 C42.4546552,24.7827655 43.1136196,25.9594875 43.9611195,25.9711897 C43.9678808,25.9714498 43.9746421,25.9714498 43.9814033,25.9714498 C44.6219042,25.9714498 45.2915306,25.5036215 45.8306123,25.1270704 C45.9338518,25.0550368 46.03033,24.9876841 46.1182266,24.9299532 C48.4053582,23.4286899 49.8756756,22.2691311 52.0546268,20.4063996 C51.8655711,21.5363128 51.3745985,23.1441963 51.1616183,23.7254059 C50.9408366,24.3281997 51.4422112,25.0022469 52.4381992,25.44277 C53.3405695,25.8419453 54.4816648,25.9454449 54.8553553,25.23083 L54.8556154,25.2303099 C56.3873044,22.2849941 56.1376573,18.3210661 55.8523835,16.2203897" id="Fill-9"></path>
                    <path d="M32.8911165,5.02025814 C32.0069497,5.85761616 30.5948832,6.55454767 29.380454,6.75218497 C29.2088216,6.78079036 29.1334074,6.6585673 29.1126035,6.62216043 C29.0944,6.58315307 29.0397897,6.44792755 29.1646133,6.323104 C30.4440547,5.05406452 32.1785821,4.67439287 32.6804768,4.58597619 C32.8521091,4.55737079 32.9275234,4.67959385 32.9457268,4.71860121 C32.9665307,4.75760858 33.021141,4.89543458 32.8911165,5.02025814 M35.0157174,1.60321332 C32.4516336,-0.536990554 28.3610617,1.14292646 26.5147132,3.11929941 C25.591539,4.10748589 25.183262,5.43893715 25.3887008,6.7703884 C25.6097425,8.19805781 26.4809069,9.43329091 27.7785517,10.1614283 C28.4780837,10.5541024 29.25303,10.7257348 30.0513806,10.7257348 C31.9835452,10.7257348 34.0457344,9.71154342 35.4708033,8.35148677 C36.3991785,7.41010912 36.8776688,6.22168486 36.8178575,5.0046552 C36.7554457,3.73041474 36.115725,2.52118655 35.0157174,1.60321332" id="Fill-11"></path>
                </g>
                <g id="Group-2" transform="translate(61.764706, 0.000000)">
                    <path d="M17.8086604,29.9999342 L1.08621454,29.9999342 C0.17337487,29.9999342 -0.330941888,28.9406056 0.244808772,28.2318628 L22.2069477,1.20153797 C22.8245053,0.441441758 23.7518293,0 24.7314942,0 L35.8656363,0 C38.6044845,0 40.1174348,3.17798563 38.3901828,5.30388486 L18.6500661,29.5993118 C18.4443233,29.8527869 18.1352153,29.9999342 17.8086604,29.9999342" id="Fill-16" fill="#000000"></path>
                    <path d="M40.8924432,6.58376969e-05 L24.7345556,6.58376969e-05 C26.530608,6.58376969e-05 27.9872671,1.45639569 27.9872671,3.25277725 L27.9872671,28.9156531 C27.9872671,29.514447 28.4724909,30 29.0712847,30 L43.0608078,30 C43.6596016,30 44.1451546,29.514447 44.1451546,28.9156531 L44.1451546,3.25277725 C44.1451546,1.45639569 42.6888248,6.58376969e-05 40.8924432,6.58376969e-05" id="Fill-18" fill="#FF3800"></path>
                </g>
            </g>
        </g>
    </g>
</svg>