<?xml version="1.0" standalone="no"?>
<!DOCTYPE svg PUBLIC "-//W3C//DTD SVG 20010904//EN" "http://www.w3.org/TR/2001/REC-SVG-20010904/DTD/svg10.dtd">
<svg version="1.0" xmlns="http://www.w3.org/2000/svg" viewBox="0 0 630.000000 625.000000"
  preserveAspectRatio="xMidYMid meet">

  <g transform="translate(0.000000,625.000000) scale(0.100000,-0.100000)" fill="fillCurrent" stroke="none">
    <path d="M3175 5604 c-217 -175 -663 -564 -739 -645 -206 -223 -293 -454 -257
-689 31 -204 116 -252 288 -165 116 59 199 130 474 404 285 286 372 390 444
536 57 117 78 198 79 315 1 139 -31 247 -92 313 -42 45 -64 37 -197 -69z" />
    <path d="M5048 5620 c-169 -132 -685 -579 -755 -655 -132 -141 -217 -285 -249
-422 -39 -164 -12 -383 56 -448 112 -107 379 67 814 530 227 242 325 385 377
555 32 104 33 264 2 365 -26 82 -81 155 -118 155 -14 0 -65 -32 -127 -80z" />
    <path d="M3425 4528 c-11 -6 -96 -72 -190 -147 -187 -148 -410 -364 -467 -452
-57 -86 -88 -191 -90 -301 -3 -137 18 -168 138 -208 48 -16 73 -32 108 -70 28
-30 46 -58 46 -73 0 -55 -125 -182 -226 -229 -57 -27 -74 -30 -132 -27 -370
21 -674 -48 -823 -188 -120 -112 -102 -274 46 -419 184 -181 353 -211 532 -95
53 34 64 46 74 83 7 24 16 47 20 52 4 5 39 1 79 -8 94 -21 304 -22 383 -1 201
52 406 236 619 555 90 135 213 383 237 481 28 112 44 294 31 353 -26 118 -116
217 -225 249 -59 17 -63 28 -41 115 20 76 21 211 2 257 -18 43 -59 85 -83 85
-10 0 -27 -6 -38 -12z" />
    <path d="M5226 4395 c-172 -71 -314 -225 -471 -513 -27 -50 -52 -92 -55 -92
-3 1 -17 18 -32 40 -35 51 -78 72 -158 78 -135 9 -269 -49 -403 -177 -169
-161 -333 -448 -391 -684 -86 -351 20 -773 229 -911 78 -51 134 -66 252 -66
167 0 330 43 518 137 307 154 503 352 741 748 139 232 221 432 263 640 53 264
33 440 -70 611 -46 77 -138 170 -190 194 -63 28 -157 26 -233 -5z m-51 -757
c30 -24 55 -74 55 -112 0 -44 -42 -140 -76 -173 -77 -78 -184 -13 -184 112 0
55 18 92 72 151 47 51 88 58 133 22z m-709 -607 c44 -27 68 -83 67 -157 0 -34
-8 -74 -17 -92 -25 -48 -79 -84 -127 -86 -36 -1 -46 4 -74 37 -102 118 -46
317 90 317 17 0 44 -9 61 -19z" />
    <path d="M1372 2369 c-87 -26 -155 -155 -156 -294 -1 -83 12 -110 83 -180 137
-135 350 -203 550 -176 129 17 216 73 278 179 40 67 40 153 0 205 -36 48 -152
104 -251 121 -55 9 -93 24 -143 54 -119 72 -180 95 -257 98 -39 2 -86 -1 -104
-7z" />
    <path d="M1128 1741 c-68 -43 -102 -118 -96 -209 7 -89 40 -153 117 -224 101
-94 215 -135 346 -125 82 6 130 24 186 68 80 63 115 172 75 233 -9 15 -55 45
-104 70 -48 24 -132 70 -187 101 -55 32 -122 71 -150 86 -68 39 -126 39 -187
0z" />
    <path d="M845 1281 c-67 -40 -115 -120 -115 -191 0 -61 21 -100 85 -158 100
-92 189 -122 298 -103 131 23 210 129 163 220 -8 15 -43 47 -78 71 -35 25 -88
68 -120 97 -31 28 -70 59 -87 67 -41 22 -109 20 -146 -3z" />
    <path d="M534 811 c-70 -43 -99 -153 -60 -229 38 -74 187 -140 291 -129 140
14 247 141 186 219 -12 15 -43 34 -73 44 -28 9 -87 38 -131 65 -68 42 -88 49
-131 49 -32 0 -62 -7 -82 -19z" />
  </g>
</svg>
