<svg width="130px" height="32px" viewBox="0 0 130 44" version="1.1" xmlns="http://www.w3.org/2000/svg">
  <title>logo</title>
  <defs>
    <filter colorInterpolationFilters="auto" id="filter-1">
      <feColorMatrix in="SourceGraphic" type="matrix"
        values="0 0 0 0 1.000000 0 0 0 0 0.219665 0 0 0 0 0.000000 0 0 0 1.000000 0"></feColorMatrix>
    </filter>
  </defs>
  <g id="Symbols" stroke="none" strokeWidth="1" fill="none" fillRule="evenodd">
    <g id="Footer" transform="translate(-1340.000000, -80.000000)">
      <g id="logo" transform="translate(70.000000, 80.000000)">
        <g transform="translate(1270.000000, 0.000000)">
          <path
            d="M32.5102041,24.8587959 C34.1670583,24.8587959 35.5102041,26.2172739 35.5102041,27.8930414 C35.5102041,29.568809 34.1670583,30.9272869 32.5102041,30.9272869 C30.8533498,30.9272869 29.5102041,29.568809 29.5102041,27.8930414 C29.5102041,26.2172739 30.8533498,24.8587959 32.5102041,24.8587959 Z M13.4965986,0 C16.1097122,0 18.549377,0.751099518 20.6160597,2.05148742 C18.373116,3.8247791 16.9319728,6.58595409 16.9319728,9.68756841 C16.9319728,14.7844441 20.8236751,18.961988 25.7656132,19.3462979 C23.6318965,24.0412511 18.9406667,27.3013292 13.4965986,27.3013292 C6.04263304,27.3013292 0,21.1897185 0,13.6506646 C0,6.11161071 6.04263304,0 13.4965986,0 Z M26.5102041,-1.59872116e-14 C31.8001152,-1.59872116e-14 36.0884354,4.33727212 36.0884354,9.68756841 C36.0884354,15.0378647 31.8001152,19.3751368 26.5102041,19.3751368 C26.2596436,19.3751368 26.0113302,19.3654061 25.7656132,19.3462979 C26.5538587,17.612562 26.9931973,15.6835054 26.9931973,13.6506646 C26.9931973,8.7545534 24.4446361,4.46048545 20.6160597,2.05148742 C22.2405245,0.766155775 24.2869015,-1.59872116e-14 26.5102041,-1.59872116e-14 Z"
            id="Combined-Shape" fill="currentColor"></path>
          <path
            d="M111.749027,41.3579359 C112.428271,41.3579359 113.827364,40.5568789 115.946308,38.954765 C118.065252,37.3526511 120.512743,35.0971404 123.288781,32.1882331 C123.067288,33.2661531 122.893786,34.0044545 122.768274,34.4031372 C122.642761,34.8018199 122.413886,35.4367591 122.081647,36.3079547 C121.749409,37.1791503 121.583289,37.7697913 121.583289,38.0798779 C121.583289,38.7295831 121.830622,39.3645222 122.325289,39.9846954 C122.819955,40.6048685 123.827745,40.9149551 125.34866,40.9149551 C125.865475,40.9001891 126.426589,40.6897732 127.032002,40.2837074 C127.637415,39.8776417 128.220678,39.0138291 128.781792,37.6922697 C129.342906,36.3707103 129.748975,34.4991164 130,32.0774879 C129.955702,29.3310069 129.468418,27.1087199 128.53815,25.4106268 C127.607882,23.7125337 126.507803,22.8634871 125.237914,22.8634871 C124.351944,22.8634871 123.281398,23.4615112 122.026274,24.6575594 C120.771151,25.8536076 119.722753,26.8761549 118.881082,27.7252015 C118.039411,28.574248 117.009472,29.5266568 115.791263,30.5824277 C114.573055,31.6381986 112.812191,32.8231723 110.50867,34.1373487 C108.85486,35.377695 108.101786,36.5515941 108.249448,37.6590461 C108.338045,38.7222001 108.725656,39.6044702 109.412283,40.3058565 C110.098909,41.0072427 110.877824,41.3579359 111.749027,41.3579359 Z M115.458156,16.6984553 L115.627972,16.6978088 C116.561919,16.5073024 117.918367,15.7672583 119.697315,14.4776765 C121.476264,13.1880947 123.566528,11.5175001 125.968108,9.46589271 C127.495038,8.20561959 128.258503,7.2237789 128.258503,6.52037065 C128.110258,3.91189837 126.939117,2.60766224 124.745081,2.60766224 C124.063151,2.60766224 123.225563,3.04729239 122.232317,3.92655271 C119.208105,6.35917292 117.073367,7.94184149 115.828103,8.67455842 C114.760734,9.40727535 113.826787,9.98245815 113.02626,10.4001068 C112.225733,10.8177554 111.788409,11.6054261 111.714286,12.7631189 C111.714286,13.2320577 111.907005,13.8695215 112.292444,14.6755101 C112.677883,15.320301 113.085558,15.8222121 113.515471,16.1812434 C113.945383,16.5402747 114.64955,16.7124632 115.627972,16.6978088 L115.458156,16.6984553 Z M74.3989104,36.9463586 C75.2944978,37.0195925 76.2839774,36.5984978 77.3673491,35.6830745 C78.4507209,34.7676512 79.5702051,33.8192727 80.7258017,32.837939 C85.2759632,33.350576 90.3461432,33.6068945 95.9363416,33.6068945 C98.5653238,33.5336607 100.869294,33.2260785 102.848254,32.6841479 C104.827213,32.1422173 106.621999,31.4355106 108.232611,30.5640276 C109.843224,29.6925447 110.713533,28.3779968 110.843537,26.6203842 C110.843537,25.9026923 110.691865,25.3058364 110.388521,24.8298163 C110.085177,24.3537962 109.651828,23.9034079 109.088475,23.4786515 C108.380672,22.8927806 107.477862,22.9440443 106.380046,23.6324426 C104.487756,24.701657 102.80853,25.5291996 101.342367,26.1150705 C99.8762037,26.7009414 98.0453054,26.9938769 95.8496719,26.9938769 C89.0749869,26.9938769 84.4381557,26.7814987 81.9391781,26.3567423 C81.6791689,25.3900553 81.137483,24.5661744 80.3141204,23.8850995 C79.4907579,23.2040246 78.3857186,22.8634871 76.9990027,22.8634871 C76.0745255,22.8927806 75.3017203,23.0062931 74.6805871,23.2040246 C74.059454,23.401756 73.3877634,23.8374975 72.6655156,24.511249 C71.7988182,25.6536972 71.3654694,26.730235 71.3654694,27.7408623 C71.3654694,28.7514895 71.8277081,29.6962063 72.7521853,30.5750127 C72.1310522,30.941182 71.6182562,31.4025553 71.2137974,31.9591327 C70.8093386,32.51571 70.6937789,33.1894615 70.8671184,33.9803872 C71.0693478,34.8152532 71.5026965,35.5036515 72.1671646,36.0455821 C72.4416187,36.2652837 72.7124617,36.45203 72.9796934,36.6058211 C73.2469251,36.7596123 73.7199975,36.8731247 74.3989104,36.9463586 Z M87.9523268,18.4600469 C89.2249589,18.4600469 90.4427362,18.2158837 91.6056587,17.7275574 C92.7685812,17.2392311 93.810823,16.594203 94.7323842,15.7924732 C95.6100615,15.0198972 96.3195174,14.1525714 96.8607517,13.1904956 C97.4019861,12.2284198 97.7018592,11.2517672 97.760371,10.2605376 C97.760371,10.1730762 97.764028,10.0856147 97.771342,9.9981533 C97.7786559,9.91069187 97.7823129,9.82323043 97.7823129,9.735769 C97.7823129,8.9194623 97.6652893,8.13595363 97.431242,7.385243 C97.1971947,6.63453237 96.8534377,5.95306204 96.3999711,5.34083201 C95.785597,4.5099484 94.9847164,3.8466992 93.9973294,3.35108441 C93.0099424,2.85546963 91.828735,2.60766224 90.4537072,2.60766224 C89.4151224,2.60766224 88.3838515,2.82267159 87.3598946,3.2526903 C86.3359377,3.68270901 85.3924346,4.2475641 84.5293852,4.94725556 C84.0466627,5.34083201 83.6005101,5.77085072 83.1909273,6.23731169 C82.7813445,6.70377267 82.4339306,7.18481055 82.1486855,7.68042533 C81.8634403,8.17604012 81.640364,8.67894336 81.4794565,9.18913505 C81.318549,9.69932674 81.2380952,10.1876531 81.2380952,10.654114 L81.2380952,10.7415755 C81.2380952,12.0826508 81.3624329,13.2087167 81.6111081,14.1197733 C81.8597833,15.0308299 82.298622,15.8362039 82.9276241,16.5358954 C83.4688585,17.1481254 84.1490584,17.6218748 84.9682239,17.9571437 C85.7873894,18.2924125 86.7820904,18.4600469 87.9523268,18.4600469 Z M88.9853138,11.4145426 C88.8225571,11.4145426 88.6516625,11.3319781 88.4726302,11.1668491 C88.2935978,11.0017201 88.2040816,10.7618899 88.2040816,10.4473584 L88.2040816,10.352999 C88.2203573,10.1013738 88.2935978,9.87333855 88.4238032,9.66889311 C88.5540085,9.46444767 88.7086274,9.29931866 88.8876597,9.17350609 C89.0666921,9.04769351 89.2497934,8.94940243 89.4369636,8.87863286 C89.6241338,8.80786329 89.7909594,8.7724785 89.9374404,8.7724785 C90.5233645,8.7724785 90.8163265,9.11846309 90.8163265,9.81043226 L90.8163265,9.97556126 C90.8163265,10.1171004 90.7674995,10.2704345 90.6698455,10.4355635 C90.5721915,10.6006925 90.4460551,10.7540266 90.2914362,10.8955657 C90.1368173,11.0371049 89.9455782,11.1589858 89.7177189,11.2612085 C89.4898595,11.3634313 89.2457245,11.4145426 88.9853138,11.4145426 Z M49.2272693,44 L49.3859445,43.9984177 C50.1968872,43.9388184 51.1552741,43.4769237 52.261105,42.6127336 C53.8977349,41.0929511 55.5122481,39.625318 57.1046446,38.2098342 C58.6970412,36.7943505 60.8128645,34.8797225 63.4521144,32.4659503 C66.0913643,30.052178 67.8385772,28.2343989 68.6937531,27.0126129 C68.9296637,26.744416 69.047619,26.3197709 69.047619,25.7386776 C69.047619,25.3661819 68.9665248,25.0272108 68.8043362,24.7217643 C68.6421477,24.4163178 68.3841205,24.136946 68.0302546,23.8836489 C67.3520116,23.4068544 66.4968356,23.1908069 65.4647267,23.2355064 C64.0197743,23.3845046 62.7664992,23.5484028 61.7049015,23.7272007 C62.3978889,23.2355064 62.6927771,22.6097136 62.5895662,21.8498223 C62.5895662,21.0601314 62.2209559,20.4343386 61.4837353,19.9724439 C60.7465146,19.5105492 60.1125049,19.3019516 59.581706,19.3466511 C58.2547089,19.3466511 57.2815776,19.6893471 56.6623123,20.3747392 C56.0283025,21.1942298 55.3426873,21.9764708 54.6054667,22.7214623 C53.8829904,23.526053 53.1678864,24.1518458 52.4601546,24.5988407 C51.2363683,25.2842328 50.5544392,26.2601716 50.4143673,27.526657 C50.2742954,28.7931425 50.9267357,29.5753835 52.3716881,29.8733801 C53.7134297,29.9031797 55.3353151,29.8361305 57.2373444,29.6722324 C55.5269925,31.2367144 54.1631343,32.4436005 53.1457698,33.2928908 C52.1284053,34.142181 50.2632371,35.6545136 47.5502651,37.8298886 C46.1937792,38.6493792 45.5229084,39.5508188 45.5376528,40.5342075 C45.5376528,41.2493993 45.8583438,42.0130155 46.4997257,42.8250562 C47.1411077,43.6370969 48.1031806,44.0282174 49.3859445,43.9984177 L49.2272693,44 Z M50.0970404,15.1459807 C51.6187703,17.6993479 53.4507558,18.2432605 55.5929969,16.7777183 C57.6761417,15.3423935 59.748206,13.6539983 61.8091897,11.7125326 C63.8701734,9.77106698 64.8267948,7.92403059 64.6790541,6.17142346 C64.5904096,4.72098997 63.8221576,3.53873559 62.3742981,2.62466032 C60.9264386,1.71058505 58.9614864,1.12512362 56.4794415,0.868276025 C54.455393,0.76251525 52.9558242,1.0382487 51.9807351,1.69547637 C51.0056461,2.35270405 50.5181016,3.39898028 50.5181016,4.83430509 C50.6362942,6.02789098 51.1090646,6.83620547 51.9364129,7.25924857 C52.9410501,7.60674826 53.6428188,7.78049811 54.0417188,7.78049811 C54.4406189,7.78049811 55.0906783,7.78805245 55.991897,7.80316113 C54.6622301,9.1025078 52.9779853,10.2734307 50.9391627,11.3159297 C50.3038774,11.8145162 49.9603802,12.3810918 49.9086709,13.0156565 C49.8569616,13.6502211 49.9197514,14.3603292 50.0970404,15.1459807 Z"
            id="އަސްލު" fill="currentColor" fillRule="nonzero"></path>
        </g>
      </g>
    </g>
  </g>
</svg>
